<?xml version="1.0" encoding="UTF-8"?>
<svg id="Capa_2" data-name="Capa 2" xmlns="http://www.w3.org/2000/svg" viewBox="0 0 341.36 410.05">
  <defs>
    <style>
      .cls-1 {
        fill: #ffed00;
      }
    </style>
  </defs>
  <g id="Capa_1-2" data-name="Capa 1">
    <polygon class="cls-1" points="89.05 305.31 43.91 342.21 49.84 387.67 149.93 410.05 195.73 345.92 120.01 311.86 209.97 325.97 251.58 267.71 158.02 210.95 99.15 206.35 89.05 305.31"/>
    <polygon class="cls-1" points="257.36 248.75 341.36 195.83 315.79 159.4 246.7 234.91 257.36 248.75"/>
    <polygon class="cls-1" points="213.36 217.15 276.37 135.4 261.86 119.43 283.59 126.04 304.45 98.97 269.26 78.07 199.51 206.26 213.36 217.15"/>
    <polygon class="cls-1" points="157.94 188.03 171.25 191.01 249.58 12.93 191.75 0 157.94 188.03"/>
    <polygon class="cls-1" points="123.06 186.07 132.17 91.34 91.42 96.44 101.67 186.49 123.06 186.07"/>
    <polygon class="cls-1" points="39.62 321.14 66.6 300.52 27.82 220.7 0 274.42 39.62 321.14"/>
    <polygon class="cls-1" points="90.61 91.34 132.48 78.07 136.51 24.61 90.61 46.87 90.61 91.34"/>
  </g>
</svg>