<?xml version="1.0" encoding="UTF-8"?>
<svg id="Capa_2" data-name="Capa 2" xmlns="http://www.w3.org/2000/svg" viewBox="0 0 198 189.23">
  <defs>
    <style>
      .cls-1 {
        fill: #ffed00;
      }
    </style>
  </defs>
  <g id="Capa_1-2" data-name="Capa 1">
    <path class="cls-1" d="m113.68,92.64l48.57,15.28,35.75-17.69-38.92-19.26c-1.06-3.34-2.4-6.55-3.97-9.62l13.89-41.12-41.12,13.89c-3.07-1.57-6.28-2.91-9.62-3.97L103.34,0l-9.54,1.74-14.19,28.67c-3.15,1.04-6.19,2.33-9.1,3.84l-41.51-14.02,13.06,38.64,29.73,33.61-32.67-21.61L0,90.23l39.95,19.77c.93,2.74,2.04,5.4,3.32,7.96l-14.28,42.27,42.27-14.28c2.56,1.28,5.22,2.39,7.96,3.32l6.21,12.55,14.58,2.49-11.08,4.57,10.06,20.34,19.64-39.69c2.93-.95,5.76-2.1,8.48-3.45l41.88,14.15-13.01-38.5-42.32-29.09Z"/>
  </g>
</svg>