<?xml version="1.0" encoding="UTF-8"?>
<svg id="Capa_1" data-name="Capa 1" xmlns="http://www.w3.org/2000/svg" viewBox="0 0 768 768">
  <defs>
    <style>
      .cls-1 {
        fill: #247ba0;
      }
    </style>
  </defs>
  <path class="cls-1" d="m384,0C171.92,0,0,171.92,0,384s171.92,384,384,384,384-171.92,384-384S596.08,0,384,0Zm-211.89,214.95h423.76c22.48,0,10.88,28.85-1.35,36.23-12.23,7.33-181.45,109.71-187.82,113.49-6.37,3.78-14.48,5.64-22.71,5.64-7.92.16-15.73-1.78-22.65-5.64l-187.87-113.49c-12.23-7.38-23.78-36.23-1.35-36.23Zm437.29,309.93c0,11.83-14.2,28.18-25.02,28.18H183.62c-10.82,0-25.02-16.34-25.02-28.18v-205.51c0-5.18-.11-11.89,9.69-6.2l192.55,113.55c6.8,4.15,14.7,6.12,22.65,5.64,8.23,0,14.2-.62,22.71-5.64l193.51-113.49c9.81-5.75,9.69,1.01,9.69,6.2v205.45Z"/>
</svg>